<svg version="1.1" id="Layer_1" xmlns="http://www.w3.org/2000/svg" xmlns:xlink="http://www.w3.org/1999/xlink" x="0px" y="0px"
	 width="100%" viewBox="0 0 604 664" enable-background="new 0 0 604 664" xml:space="preserve">
<path fill="#FFFFFF" opacity="1.000000" stroke="none" 
	d="
M605.000000,358.000000 
	C605.000000,460.258331 605.000000,562.516663 605.000000,665.000000 
	C508.645874,665.000000 412.291595,665.000000 315.469177,664.683655 
	C315.018097,663.946045 315.035187,663.524719 315.460968,663.044678 
	C321.918793,661.935120 327.967926,660.884277 334.272247,659.863342 
	C334.629456,659.602051 334.731415,659.310852 334.904785,658.554688 
	C334.928589,645.059998 334.880981,632.030212 334.897583,618.627319 
	C334.080414,617.577332 333.114410,616.244324 332.333130,616.344971 
	C329.852142,616.664612 327.440002,617.518860 324.670105,618.097168 
	C323.892548,618.074097 323.446167,618.120300 322.646790,618.100830 
	C321.196228,618.412354 320.098724,618.789429 318.670044,619.097168 
	C317.892517,619.074097 317.446167,619.120300 316.646790,619.100891 
	C315.196228,619.412354 314.098724,619.789490 312.629333,620.095703 
	C311.504913,620.072144 310.752350,620.119385 309.646790,620.100952 
	C308.196228,620.412354 307.098724,620.789429 305.576843,621.095459 
	C303.434906,621.071777 301.717346,621.119202 299.646790,621.100952 
	C298.196228,621.412415 297.098724,621.789490 295.545166,622.095337 
	C291.392700,622.071533 287.696259,622.119019 283.646790,622.100952 
	C282.196228,622.412415 281.098724,622.789490 279.537384,623.095154 
	C202.376572,623.015869 125.679581,623.007324 48.982597,623.007080 
	C47.988094,623.007080 46.993591,623.111084 45.668518,623.097229 
	C44.892384,623.074158 44.446827,623.120361 43.631561,622.922363 
	C43.174568,621.189270 43.011070,619.700378 43.010883,618.211548 
	C42.998821,521.618530 43.000004,425.025482 43.000004,328.432434 
	C43.000004,327.167114 43.000004,325.901794 43.000004,324.158936 
	C48.038452,327.187286 52.646755,329.849060 57.148273,332.680603 
	C82.319138,348.513580 107.470360,364.377869 132.616577,380.250061 
	C164.363831,400.288849 196.130829,420.296631 227.831696,440.408600 
	C258.299500,459.738281 288.671265,479.219299 319.144470,498.540436 
	C323.714233,501.437836 328.607513,503.825012 333.534729,506.674866 
	C334.090027,506.602509 334.461700,506.303497 334.904846,505.540405 
	C334.928650,489.717560 334.881012,474.358765 334.898560,458.644287 
	C333.327789,457.160065 331.691803,456.031555 330.033264,454.942261 
	C330.010651,454.981445 330.091370,454.940552 329.948975,454.622864 
	C327.222961,452.837769 324.639343,451.370361 322.033356,449.942200 
	C322.010986,449.981476 322.091553,449.940552 321.963379,449.638947 
	C320.908661,448.859222 319.982086,448.381073 319.033203,447.942139 
	C319.010864,447.981354 319.091370,447.940552 318.948975,447.622864 
	C316.222992,445.837738 313.639343,444.370361 311.033203,442.942139 
	C311.010712,442.981323 311.091370,442.940552 310.948975,442.622864 
	C308.222992,440.837769 305.639343,439.370361 303.033356,437.942200 
	C303.010986,437.981476 303.091553,437.940552 302.963379,437.638947 
	C301.908691,436.859192 300.982117,436.381042 300.033203,435.942139 
	C300.010864,435.981354 300.091370,435.940552 299.948975,435.622864 
	C297.222992,433.837738 294.639343,432.370331 292.033203,430.942139 
	C292.010712,430.981323 292.091370,430.940552 291.948975,430.622864 
	C289.222992,428.837769 286.639343,427.370361 284.033356,425.942200 
	C284.010986,425.981476 284.091553,425.940552 283.963379,425.638947 
	C282.908661,424.859192 281.982117,424.381073 281.033203,423.942139 
	C281.010864,423.981354 281.091370,423.940552 280.948975,423.622864 
	C278.222961,421.837769 275.639343,420.370361 273.033203,418.942139 
	C273.010712,418.981323 273.091370,418.940552 272.948975,418.622864 
	C270.222992,416.837738 267.639374,415.370331 265.033356,413.942200 
	C265.010986,413.981476 265.091553,413.940552 264.963379,413.638947 
	C263.908661,412.859192 262.982117,412.381073 262.033203,411.942139 
	C262.010864,411.981354 262.091370,411.940552 261.948975,411.622864 
	C259.222992,409.837738 256.639343,408.370361 254.033249,406.942139 
	C254.010773,406.981293 254.091370,406.940552 253.949005,406.622864 
	C251.223007,404.837769 248.639359,403.370361 246.033356,401.942200 
	C246.011002,401.981445 246.091537,401.940552 245.963394,401.638947 
	C244.908676,400.859222 243.982117,400.381073 243.033234,399.942139 
	C243.010895,399.981323 243.091370,399.940552 242.949005,399.622864 
	C240.223007,397.837738 237.639374,396.370361 235.033249,394.942139 
	C235.010773,394.981293 235.091370,394.940552 234.949005,394.622864 
	C232.223022,392.837738 229.639374,391.370331 227.033356,389.942200 
	C227.011002,389.981445 227.091537,389.940552 226.963394,389.638947 
	C225.908691,388.859192 224.982132,388.381042 224.033234,387.942139 
	C224.010895,387.981323 224.091370,387.940552 223.949020,387.622833 
	C221.223022,385.837738 218.639374,384.370331 216.033264,382.942108 
	C216.010773,382.981293 216.091370,382.940552 215.949005,382.622864 
	C213.223007,380.837738 210.639374,379.370361 208.033356,377.942200 
	C208.011002,377.981445 208.091537,377.940552 207.963394,377.638947 
	C206.908676,376.859222 205.982117,376.381073 205.033234,375.942139 
	C205.010895,375.981323 205.091370,375.940552 204.949005,375.622864 
	C202.223007,373.837738 199.639374,372.370361 197.033249,370.942139 
	C197.010773,370.981293 197.091370,370.940552 196.949005,370.622864 
	C194.223007,368.837769 191.639359,367.370361 189.033356,365.942200 
	C189.011002,365.981445 189.091537,365.940552 188.963379,365.638977 
	C187.908676,364.859222 186.982117,364.381073 186.033218,363.942139 
	C186.010895,363.981323 186.091370,363.940552 185.949005,363.622864 
	C183.223007,361.837738 180.639359,360.370361 178.033249,358.942139 
	C178.010773,358.981293 178.091370,358.940552 177.949020,358.622864 
	C175.223022,356.837738 172.639374,355.370331 170.033371,353.942200 
	C170.011002,353.981445 170.091537,353.940552 169.963394,353.638947 
	C168.908691,352.859192 167.982117,352.381073 167.033234,351.942139 
	C167.010895,351.981323 167.091370,351.940552 166.949020,351.622833 
	C164.223022,349.837738 161.639374,348.370331 159.033264,346.942108 
	C159.010773,346.981293 159.091370,346.940552 158.949005,346.622864 
	C156.223022,344.837738 153.639374,343.370331 151.033356,341.942200 
	C151.011002,341.981445 151.091537,341.940552 150.963394,341.638947 
	C149.908691,340.859192 148.982117,340.381073 148.033234,339.942139 
	C148.010895,339.981323 148.091370,339.940552 147.949005,339.622864 
	C145.223007,337.837738 142.639359,336.370361 140.033249,334.942139 
	C140.010773,334.981293 140.091370,334.940552 139.949005,334.622864 
	C137.223007,332.837769 134.639359,331.370361 132.033356,329.942200 
	C132.011002,329.981445 132.091537,329.940552 131.963394,329.638947 
	C130.908676,328.859222 129.982117,328.381073 129.033234,327.942139 
	C129.010895,327.981323 129.091370,327.940552 128.949005,327.622833 
	C126.222992,325.837738 123.639351,324.370331 121.033249,322.942139 
	C121.010796,322.981293 121.091377,322.940552 120.949020,322.622864 
	C118.223015,320.837738 115.639359,319.370331 113.033371,317.942200 
	C113.011024,317.981445 113.091545,317.940552 112.963394,317.638977 
	C111.908669,316.859222 110.982101,316.381073 110.033218,315.942139 
	C110.010910,315.981323 110.091377,315.940552 109.949013,315.622864 
	C107.223000,313.837769 104.639343,312.370361 102.033249,310.942139 
	C102.010796,310.981293 102.091377,310.940552 101.949020,310.622864 
	C99.223000,308.837769 96.639351,307.370361 94.033363,305.942200 
	C94.011024,305.981445 94.091545,305.940552 93.963394,305.638977 
	C92.908669,304.859222 91.982101,304.381073 91.033218,303.942139 
	C91.010910,303.981323 91.091377,303.940552 90.949020,303.622864 
	C88.223007,301.837738 85.639359,300.370331 83.033249,298.942139 
	C83.010796,298.981293 83.091377,298.940552 82.949020,298.622864 
	C80.223007,296.837738 77.639359,295.370361 75.033363,293.942200 
	C75.011024,293.981445 75.091545,293.940552 74.963394,293.638977 
	C73.908669,292.859253 72.982101,292.381104 72.033218,291.942139 
	C72.010910,291.981323 72.091377,291.940552 71.949020,291.622864 
	C69.223007,289.837738 66.639359,288.370361 64.033249,286.942139 
	C64.010796,286.981293 64.091377,286.940552 63.949017,286.622833 
	C61.223011,284.837738 58.639366,283.370331 56.033375,281.942200 
	C56.011032,281.981415 56.091541,281.940552 55.963394,281.638947 
	C54.908676,280.859192 53.982109,280.381073 53.033234,279.942139 
	C53.010925,279.981323 53.091377,279.940552 52.949005,279.622833 
	C50.222996,277.837738 47.639355,276.370361 45.033253,274.942139 
	C45.010796,274.981293 45.091377,274.940552 44.949013,274.622833 
	C42.223000,272.837738 39.639359,271.370331 37.033375,269.942200 
	C37.011032,269.981415 37.091541,269.940552 36.963390,269.638947 
	C35.908672,268.859192 34.982105,268.381073 34.033234,267.942139 
	C34.010925,267.981323 34.091377,267.940552 33.949013,267.622833 
	C31.223005,265.837738 28.639357,264.370331 26.033249,262.942139 
	C26.010792,262.981293 26.091372,262.940552 25.949017,262.622864 
	C23.223013,260.837738 20.639364,259.370331 18.033375,257.942200 
	C18.011032,257.981415 18.091539,257.940552 17.963375,257.638977 
	C16.908646,256.859192 15.982079,256.381042 15.033215,255.942047 
	C15.010918,255.981232 15.091386,255.940536 14.948963,255.622757 
	C12.218163,253.831436 9.629785,252.357880 6.921626,250.591309 
	C5.905919,249.851364 5.009992,249.404434 3.980216,248.652390 
	C2.897578,247.898178 1.948789,247.449097 1.000000,247.000000 
	C1.000000,235.312439 1.000000,223.624878 1.332142,211.568039 
	C15.169187,219.880768 28.674089,228.562790 43.015343,237.782486 
	C43.015343,172.255981 43.015343,107.863403 43.015343,43.000000 
	C45.257351,43.000000 47.045013,43.000000 48.832676,43.000000 
	C74.331512,43.000000 99.830849,42.896912 125.329071,43.021351 
	C179.260788,43.284557 233.194946,43.441338 287.120941,44.171127 
	C299.359772,44.336754 311.639984,46.203075 323.777954,48.082199 
	C349.550629,52.072163 374.102386,60.269512 397.379730,71.916000 
	C410.058136,78.259453 422.146698,85.781784 434.514282,92.752251 
	C434.527252,92.732071 434.551422,92.764877 434.691772,93.050453 
	C434.454865,93.912804 434.211029,94.699989 433.681091,95.035927 
	C414.681091,107.080612 395.631561,119.047218 376.636261,131.099258 
	C340.698334,153.900955 304.818390,176.794067 268.859253,199.562210 
	C240.621155,217.441650 212.287369,235.169907 184.020584,253.004181 
	C166.645233,263.966736 149.348923,275.054871 131.946106,285.973389 
	C126.725433,289.248810 126.576538,290.820953 131.632507,293.935455 
	C142.039612,300.346252 152.342773,306.929871 162.856461,313.159241 
	C164.408707,314.078949 167.405991,314.305542 168.841705,313.414307 
	C190.312378,300.085907 211.624954,286.503082 232.990738,273.005402 
	C260.972351,255.328217 288.984131,237.698685 316.951721,219.999329 
	C334.177063,209.098236 351.295837,198.028305 368.548706,187.171265 
	C395.038788,170.501389 421.616547,153.970917 448.131378,137.340317 
	C466.911835,125.560867 485.636841,113.693031 504.415680,101.910980 
	C509.329529,98.827972 509.332062,97.978951 503.916504,94.591309 
	C497.226288,88.511047 490.670319,82.734283 483.970276,76.646973 
	C480.903015,74.192841 477.979767,72.049255 475.047791,69.928352 
	C475.039062,69.951027 475.084534,69.930672 474.943481,69.620293 
	C460.689606,59.921722 447.087769,49.620926 432.341705,41.363564 
	C411.284851,29.572338 389.155823,19.751936 365.578705,13.953380 
	C350.268616,10.188017 334.738831,7.320099 319.325073,3.969282 
	C315.514923,3.140994 311.773193,1.998213 308.000000,1.000001 
	C406.928253,1.000000 505.856476,1.000000 605.000000,1.000000 
	C605.000000,103.020790 605.000000,205.041733 604.617676,307.338684 
	C603.143860,297.507019 602.718872,287.272247 600.820251,277.318542 
	C597.017517,257.382233 592.373047,237.645798 585.099304,218.568314 
	C576.947449,197.187607 567.432739,176.516006 554.979370,157.319260 
	C547.803406,146.257599 539.978149,135.612213 532.265930,124.908600 
	C531.109802,123.304024 529.819092,120.714905 526.667847,122.776222 
	C516.588135,129.369583 506.418030,135.826996 496.204865,142.212265 
	C493.679993,143.790848 493.073700,145.301529 495.122894,147.645233 
	C496.193176,148.869385 497.034607,150.291077 498.074188,151.544998 
	C510.086182,166.034042 520.208069,181.771179 529.065125,198.348877 
	C541.321350,221.288818 550.316223,245.490448 555.782593,270.868347 
	C558.629944,284.087128 560.570129,297.574768 561.807556,311.043182 
	C562.766785,321.482941 562.502930,332.111298 561.877808,342.601898 
	C561.019226,357.010498 560.229797,371.529724 557.750854,385.711365 
	C553.600586,409.453369 546.138367,432.354919 535.898804,454.212250 
	C523.850586,479.930450 508.678802,503.774170 489.528503,524.754395 
	C473.834351,541.948120 456.984161,558.082642 437.426727,570.998291 
	C427.973999,577.240906 418.223328,583.032532 407.776855,589.546326 
	C407.776855,458.623108 407.776855,328.921082 407.776855,198.513092 
	C406.214783,199.266983 405.198425,199.637878 404.307465,200.205627 
	C393.049988,207.379150 382.018494,214.942703 370.458710,221.588013 
	C366.163269,224.057297 364.905060,226.539185 364.908844,231.204422 
	C365.021149,369.515747 365.000000,507.827240 365.000000,646.138672 
	C365.000000,648.039307 365.000000,649.939880 365.000000,652.351990 
	C369.026672,651.133728 372.277863,650.184631 375.507629,649.167480 
	C396.543274,642.542786 416.487091,633.457642 435.733795,622.726868 
	C457.232056,610.740784 477.251221,596.599121 495.264343,579.932373 
	C507.274780,568.819702 518.205994,556.488159 529.120605,544.256287 
	C543.849548,527.749634 555.559021,509.094330 566.045715,489.673767 
	C579.796997,464.207397 590.111938,437.431488 596.411682,409.148376 
	C599.271729,396.307953 602.432556,383.533264 603.077393,370.293457 
	C603.278015,366.174194 604.335022,362.096649 605.000000,358.000000 
z"/>
<path fill="#ED0F69" opacity="1.000000" stroke="none" 
	d="
M299.999817,621.166565 
	C301.717346,621.119202 303.434906,621.071777 305.637970,621.418884 
	C308.735016,624.370117 309.372467,622.280212 309.999817,620.166565 
	C310.752350,620.119385 311.504913,620.072144 312.690491,620.419128 
	C315.735016,623.370117 316.372467,621.280212 316.999817,619.166504 
	C317.446167,619.120300 317.892517,619.074097 318.731201,619.420593 
	C321.735016,622.370117 322.372467,620.280212 322.999817,618.166504 
	C323.446167,618.120300 323.892548,618.074097 324.748779,618.447021 
	C328.383545,618.910950 331.608459,618.955688 334.833374,619.000488 
	C334.880981,632.030212 334.928589,645.059998 334.729126,658.646362 
	C334.263245,659.366150 334.108246,659.576294 334.017029,659.833496 
	C327.967926,660.884277 321.918793,661.935120 315.201508,662.743774 
	C312.022278,662.945557 309.511200,663.389526 306.579224,663.904480 
	C304.453033,664.021790 302.747772,664.067993 300.815735,663.824829 
	C299.059296,664.023682 297.529663,664.511841 296.000000,665.000000 
	C198.312439,665.000000 100.624878,665.000000 2.360739,664.780640 
	C1.584722,664.287659 1.323334,664.100586 1.000000,664.000000 
	C1.000000,525.979126 1.000000,387.958221 1.389247,249.468475 
	C2.557016,248.985611 3.335538,248.971573 4.114062,248.957520 
	C5.009992,249.404434 5.905919,249.851364 6.954361,250.943817 
	C9.768381,253.039749 12.429885,254.490143 15.091387,255.940536 
	C15.091386,255.940536 15.010918,255.981232 15.067587,256.301453 
	C16.113352,257.061279 17.102448,257.500916 18.091541,257.940552 
	C18.091539,257.940552 18.011032,257.981415 18.062372,258.294189 
	C20.772932,260.051483 23.432152,261.496033 26.091372,262.940552 
	C26.091372,262.940552 26.010792,262.981293 26.062248,263.294128 
	C28.772928,265.051483 31.432152,266.496002 34.091377,267.940552 
	C34.091377,267.940552 34.010925,267.981323 34.067596,268.301514 
	C35.113354,269.061340 36.102448,269.500946 37.091537,269.940552 
	C37.091541,269.940552 37.011032,269.981415 37.062370,270.294189 
	C39.772934,272.051483 42.432156,273.496002 45.091377,274.940552 
	C45.091377,274.940552 45.010796,274.981293 45.062256,275.294128 
	C47.772934,277.051483 50.432156,278.496002 53.091377,279.940552 
	C53.091377,279.940552 53.010925,279.981323 53.067596,280.301514 
	C54.113361,281.061340 55.102451,281.500946 56.091541,281.940552 
	C56.091541,281.940552 56.011032,281.981415 56.062374,282.294189 
	C58.772938,284.051453 61.432159,285.496002 64.091385,286.940552 
	C64.091377,286.940552 64.010796,286.981293 64.062256,287.294128 
	C66.772926,289.051483 69.432152,290.496002 72.091377,291.940552 
	C72.091377,291.940552 72.010910,291.981323 72.067581,292.301514 
	C73.113350,293.061340 74.102448,293.500946 75.091545,293.940552 
	C75.091545,293.940552 75.011024,293.981445 75.062363,294.294189 
	C77.772934,296.051483 80.432152,297.496002 83.091377,298.940552 
	C83.091377,298.940552 83.010796,298.981293 83.062248,299.294128 
	C85.772919,301.051483 88.432144,302.496033 91.091370,303.940552 
	C91.091377,303.940552 91.010910,303.981323 91.067581,304.301514 
	C92.113358,305.061310 93.102455,305.500916 94.091553,305.940552 
	C94.091545,305.940552 94.011024,305.981445 94.062363,306.294189 
	C96.772934,308.051483 99.432152,309.496002 102.091377,310.940552 
	C102.091377,310.940552 102.010796,310.981293 102.062256,311.294128 
	C104.772934,313.051453 107.432159,314.496002 110.091385,315.940552 
	C110.091377,315.940552 110.010910,315.981323 110.067581,316.301514 
	C111.113350,317.061340 112.102448,317.500946 113.091545,317.940552 
	C113.091545,317.940552 113.011024,317.981445 113.062363,318.294189 
	C115.772934,320.051483 118.432152,321.496002 121.091377,322.940552 
	C121.091377,322.940552 121.010796,322.981293 121.062256,323.294128 
	C123.772934,325.051453 126.432152,326.496002 129.091370,327.940552 
	C129.091370,327.940552 129.010895,327.981323 129.067581,328.301514 
	C130.113358,329.061310 131.102448,329.500916 132.091537,329.940552 
	C132.091537,329.940552 132.011002,329.981445 132.062378,330.294189 
	C134.772949,332.051483 137.432159,333.496033 140.091370,334.940552 
	C140.091370,334.940552 140.010773,334.981293 140.062256,335.294128 
	C142.772949,337.051453 145.432159,338.496002 148.091370,339.940552 
	C148.091370,339.940552 148.010895,339.981323 148.067581,340.301514 
	C149.113358,341.061340 150.102448,341.500946 151.091537,341.940552 
	C151.091537,341.940552 151.011002,341.981445 151.062378,342.294189 
	C153.772964,344.051453 156.432175,345.496002 159.091370,346.940552 
	C159.091370,346.940552 159.010773,346.981293 159.062256,347.294128 
	C161.772934,349.051483 164.432144,350.496033 167.091370,351.940552 
	C167.091370,351.940552 167.010895,351.981323 167.067581,352.301514 
	C168.113358,353.061310 169.102448,353.500946 170.091537,353.940552 
	C170.091537,353.940552 170.011002,353.981445 170.062378,354.294189 
	C172.772949,356.051483 175.432159,357.496033 178.091370,358.940552 
	C178.091370,358.940552 178.010773,358.981293 178.062256,359.294128 
	C180.772949,361.051483 183.432159,362.496002 186.091370,363.940552 
	C186.091370,363.940552 186.010895,363.981323 186.067581,364.301514 
	C187.113358,365.061310 188.102448,365.500946 189.091537,365.940552 
	C189.091537,365.940552 189.011002,365.981445 189.062378,366.294189 
	C191.772949,368.051483 194.432159,369.496002 197.091370,370.940552 
	C197.091370,370.940552 197.010773,370.981293 197.062256,371.294128 
	C199.772949,373.051483 202.432159,374.496033 205.091370,375.940552 
	C205.091370,375.940552 205.010895,375.981323 205.067581,376.301514 
	C206.113358,377.061310 207.102448,377.500916 208.091537,377.940552 
	C208.091537,377.940552 208.011002,377.981445 208.062378,378.294189 
	C210.772949,380.051483 213.432159,381.496033 216.091370,382.940552 
	C216.091370,382.940552 216.010773,382.981293 216.062256,383.294128 
	C218.772949,385.051483 221.432159,386.496002 224.091370,387.940552 
	C224.091370,387.940552 224.010895,387.981323 224.067581,388.301514 
	C225.113358,389.061340 226.102448,389.500946 227.091537,389.940552 
	C227.091537,389.940552 227.011002,389.981445 227.062378,390.294189 
	C229.772949,392.051483 232.432159,393.496033 235.091370,394.940552 
	C235.091370,394.940552 235.010773,394.981293 235.062256,395.294098 
	C237.772964,397.051453 240.432175,398.496002 243.091370,399.940552 
	C243.091370,399.940552 243.010895,399.981323 243.067581,400.301514 
	C244.113358,401.061310 245.102448,401.500946 246.091537,401.940552 
	C246.091537,401.940552 246.011002,401.981445 246.062378,402.294189 
	C248.772949,404.051483 251.432159,405.496002 254.091370,406.940552 
	C254.091370,406.940552 254.010773,406.981293 254.062256,407.294128 
	C256.772949,409.051483 259.432159,410.496033 262.091370,411.940552 
	C262.091370,411.940552 262.010864,411.981354 262.067566,412.301514 
	C263.113373,413.061310 264.102448,413.500946 265.091553,413.940552 
	C265.091553,413.940552 265.010986,413.981476 265.062347,414.294250 
	C267.772919,416.051514 270.432159,417.496033 273.091370,418.940552 
	C273.091370,418.940552 273.010712,418.981323 273.062195,419.294159 
	C275.772919,421.051514 278.432159,422.496033 281.091370,423.940552 
	C281.091370,423.940552 281.010864,423.981354 281.067566,424.301514 
	C282.113342,425.061340 283.102448,425.500946 284.091553,425.940552 
	C284.091553,425.940552 284.010986,425.981476 284.062347,426.294250 
	C286.772919,428.051514 289.432159,429.496033 292.091370,430.940552 
	C292.091370,430.940552 292.010712,430.981323 292.062195,431.294159 
	C294.772919,433.051514 297.432159,434.496033 300.091370,435.940552 
	C300.091370,435.940552 300.010864,435.981354 300.067566,436.301544 
	C301.113342,437.061340 302.102448,437.500946 303.091553,437.940552 
	C303.091553,437.940552 303.010986,437.981476 303.062347,438.294250 
	C305.772919,440.051514 308.432159,441.496033 311.091370,442.940552 
	C311.091370,442.940552 311.010712,442.981323 311.062195,443.294159 
	C313.772919,445.051514 316.432159,446.496033 319.091370,447.940552 
	C319.091370,447.940552 319.010864,447.981354 319.067566,448.301514 
	C320.113373,449.061310 321.102478,449.500916 322.091553,449.940552 
	C322.091553,449.940552 322.010986,449.981476 322.062347,450.294250 
	C324.772919,452.051514 327.432159,453.496033 330.091370,454.940552 
	C330.091370,454.940552 330.010651,454.981445 330.057556,455.281128 
	C331.680756,456.720551 333.257050,457.860260 334.833374,459.000000 
	C334.881012,474.358765 334.928650,489.717560 334.521973,505.610229 
	C333.828827,506.245453 333.589996,506.346832 333.351135,506.448212 
	C328.607513,503.825012 323.714233,501.437836 319.144470,498.540436 
	C288.671265,479.219299 258.299500,459.738281 227.831696,440.408600 
	C196.130829,420.296631 164.363831,400.288849 132.616577,380.250061 
	C107.470360,364.377869 82.319138,348.513580 57.148273,332.680603 
	C52.646755,329.849060 48.038452,327.187286 43.000004,324.158936 
	C43.000004,325.901794 43.000004,327.167114 43.000004,328.432434 
	C43.000004,425.025482 42.998821,521.618530 43.010883,618.211548 
	C43.011070,619.700378 43.174568,621.189270 43.675335,623.202820 
	C44.406895,624.021423 44.724968,624.315247 45.043037,624.609131 
	C45.361717,624.128296 45.680401,623.647400 45.999084,623.166565 
	C46.993591,623.111084 47.988094,623.007080 48.982597,623.007080 
	C125.679581,623.007324 202.376572,623.015869 279.598511,623.418518 
	C282.735016,626.370117 283.372467,624.280212 283.999817,622.166565 
	C287.696259,622.119019 291.392700,622.071533 295.606323,622.418701 
	C298.735016,625.370117 299.372467,623.280212 299.999817,621.166565 
z"/>
<path fill="#00ABC5" opacity="1.000000" stroke="none" 
	d="
M605.000000,357.531342 
	C604.335022,362.096649 603.278015,366.174194 603.077393,370.293457 
	C602.432556,383.533264 599.271729,396.307953 596.411682,409.148376 
	C590.111938,437.431488 579.796997,464.207397 566.045715,489.673767 
	C555.559021,509.094330 543.849548,527.749634 529.120605,544.256287 
	C518.205994,556.488159 507.274780,568.819702 495.264343,579.932373 
	C477.251221,596.599121 457.232056,610.740784 435.733795,622.726868 
	C416.487091,633.457642 396.543274,642.542786 375.507629,649.167480 
	C372.277863,650.184631 369.026672,651.133728 365.000000,652.351990 
	C365.000000,649.939880 365.000000,648.039307 365.000000,646.138672 
	C365.000000,507.827240 365.021149,369.515747 364.908844,231.204422 
	C364.905060,226.539185 366.163269,224.057297 370.458710,221.588013 
	C382.018494,214.942703 393.049988,207.379150 404.307465,200.205627 
	C405.198425,199.637878 406.214783,199.266983 407.776855,198.513092 
	C407.776855,328.921082 407.776855,458.623108 407.776855,589.546326 
	C418.223328,583.032532 427.973999,577.240906 437.426727,570.998291 
	C456.984161,558.082642 473.834351,541.948120 489.528503,524.754395 
	C508.678802,503.774170 523.850586,479.930450 535.898804,454.212250 
	C546.138367,432.354919 553.600586,409.453369 557.750854,385.711365 
	C560.229797,371.529724 561.019226,357.010498 561.877808,342.601898 
	C562.502930,332.111298 562.766785,321.482941 561.807556,311.043182 
	C560.570129,297.574768 558.629944,284.087128 555.782593,270.868347 
	C550.316223,245.490448 541.321350,221.288818 529.065125,198.348877 
	C520.208069,181.771179 510.086182,166.034042 498.074188,151.544998 
	C497.034607,150.291077 496.193176,148.869385 495.122894,147.645233 
	C493.073700,145.301529 493.679993,143.790848 496.204865,142.212265 
	C506.418030,135.826996 516.588135,129.369583 526.667847,122.776222 
	C529.819092,120.714905 531.109802,123.304024 532.265930,124.908600 
	C539.978149,135.612213 547.803406,146.257599 554.979370,157.319260 
	C567.432739,176.516006 576.947449,197.187607 585.099304,218.568314 
	C592.373047,237.645798 597.017517,257.382233 600.820251,277.318542 
	C602.718872,287.272247 603.143860,297.507019 604.617676,307.807312 
	C605.000000,324.354218 605.000000,340.708466 605.000000,357.531342 
z"/>
<path fill="#F58220" opacity="1.000000" stroke="none" 
	d="
M434.501282,92.772430 
	C422.146698,85.781784 410.058136,78.259453 397.379730,71.916000 
	C374.102386,60.269512 349.550629,52.072163 323.777954,48.082199 
	C311.639984,46.203075 299.359772,44.336754 287.120941,44.171127 
	C233.194946,43.441338 179.260788,43.284557 125.329071,43.021351 
	C99.830849,42.896912 74.331512,43.000000 48.832676,43.000000 
	C47.045013,43.000000 45.257351,43.000000 43.015343,43.000000 
	C43.015343,107.863403 43.015343,172.255981 43.015343,237.782486 
	C28.674089,228.562790 15.169187,219.880768 1.332142,211.099380 
	C1.000000,141.060089 1.000000,71.120163 1.000000,1.000000 
	C100.687492,1.000000 200.375092,1.000000 300.662445,1.334413 
	C302.508148,1.445884 303.754059,1.222941 305.000000,0.999999 
	C305.750000,1.000000 306.500000,1.000000 307.625000,1.000001 
	C311.773193,1.998213 315.514923,3.140994 319.325073,3.969282 
	C334.738831,7.320099 350.268616,10.188017 365.578705,13.953380 
	C389.155823,19.751936 411.284851,29.572338 432.341705,41.363564 
	C447.087769,49.620926 460.689606,59.921722 474.549072,69.640228 
	C469.944611,67.502098 465.341034,65.389000 461.283905,62.506718 
	C437.470673,45.589146 411.332092,33.169350 384.007721,23.360029 
	C370.637390,18.560133 356.723816,14.904732 342.772491,12.187724 
	C326.257629,8.971485 309.449982,5.429833 292.746521,5.314125 
	C198.754898,4.663025 104.756393,5.031560 10.760448,4.904000 
	C6.209867,4.897825 4.867117,6.050649 4.893327,10.705385 
	C5.089455,45.536179 5.000000,80.368584 5.000002,115.200478 
	C5.000005,145.365906 4.964737,175.531464 5.087776,205.696396 
	C5.095151,207.504837 5.831123,210.088943 7.138364,210.986862 
	C15.498642,216.729370 24.085091,222.146423 32.671417,227.552567 
	C34.239471,228.539841 36.148827,228.985046 37.900635,229.680481 
	C38.267090,227.826004 38.952045,225.971832 38.953804,224.117020 
	C39.009949,164.786194 38.999298,105.455292 39.000923,46.124405 
	C39.001118,39.006050 39.006977,39.000950 46.202431,39.000797 
	C110.199791,38.999424 174.197784,38.837803 238.194138,39.091499 
	C259.442749,39.175735 280.706757,39.962559 301.927673,41.100807 
	C321.188477,42.133919 339.925812,46.561756 358.307037,52.263668 
	C382.483612,59.763317 405.296570,70.369217 426.560364,84.080460 
	C429.646057,86.070160 435.446808,86.678719 434.501282,92.772430 
z"/>
<path fill="#ED0F69" opacity="1.000000" stroke="none" 
	d="
M307.000122,663.833435 
	C309.511200,663.389526 312.022278,662.945557 314.792816,662.802551 
	C315.035187,663.524719 315.018097,663.946045 315.000488,664.683655 
	C313.285645,665.000000 311.571289,665.000000 309.339966,664.690186 
	C308.215363,664.198059 307.607758,664.015747 307.000122,663.833435 
z"/>
<path fill="#ED0F69" opacity="1.000000" stroke="none" 
	d="
M296.416656,665.000000 
	C297.529663,664.511841 299.059296,664.023682 300.797485,664.045898 
	C301.006042,664.556396 301.000000,665.000000 301.000000,665.000000 
	C299.611115,665.000000 298.222198,665.000000 296.416656,665.000000 
z"/>
<path fill="#FFFFFF" opacity="1.000000" stroke="none" 
	d="
M301.444153,665.000000 
	C301.000000,665.000000 301.006042,664.556396 301.024292,664.335327 
	C302.747772,664.067993 304.453033,664.021790 306.579224,663.904480 
	C307.607758,664.015747 308.215363,664.198059 308.911499,664.690186 
	C306.629425,665.000000 304.258881,665.000000 301.444153,665.000000 
z"/>
<path fill="#ED0F69" opacity="1.000000" stroke="none" 
	d="
M3.980214,248.652405 
	C3.335538,248.971573 2.557016,248.985611 1.389247,248.999817 
	C1.000000,248.555557 1.000000,248.111099 1.000000,247.333328 
	C1.948789,247.449097 2.897578,247.898178 3.980214,248.652405 
z"/>
<path fill="#FFFFFF" opacity="1.000000" stroke="none" 
	d="
M304.600037,0.999999 
	C303.754059,1.222941 302.508148,1.445884 301.131104,1.334413 
	C302.066681,1.000000 303.133362,1.000000 304.600037,0.999999 
z"/>
<path fill="#ED0F69" opacity="1.000000" stroke="none" 
	d="
M1.000000,664.500000 
	C1.323334,664.100586 1.584722,664.287659 1.892081,664.780640 
	C1.666667,665.000000 1.333333,665.000000 1.000000,664.500000 
z"/>
<path fill="#F58220" opacity="1.000000" stroke="none" 
	d="
M434.514282,92.752251 
	C435.446808,86.678719 429.646057,86.070160 426.560364,84.080460 
	C405.296570,70.369217 382.483612,59.763317 358.307037,52.263668 
	C339.925812,46.561756 321.188477,42.133919 301.927673,41.100807 
	C280.706757,39.962559 259.442749,39.175735 238.194138,39.091499 
	C174.197784,38.837803 110.199791,38.999424 46.202431,39.000797 
	C39.006977,39.000950 39.001118,39.006050 39.000923,46.124405 
	C38.999298,105.455292 39.009949,164.786194 38.953804,224.117020 
	C38.952045,225.971832 38.267090,227.826004 37.900635,229.680481 
	C36.148827,228.985046 34.239471,228.539841 32.671417,227.552567 
	C24.085091,222.146423 15.498642,216.729370 7.138364,210.986862 
	C5.831123,210.088943 5.095151,207.504837 5.087776,205.696396 
	C4.964737,175.531464 5.000005,145.365906 5.000002,115.200478 
	C5.000000,80.368584 5.089455,45.536179 4.893327,10.705385 
	C4.867117,6.050649 6.209867,4.897825 10.760448,4.904000 
	C104.756393,5.031560 198.754898,4.663025 292.746521,5.314125 
	C309.449982,5.429833 326.257629,8.971485 342.772491,12.187724 
	C356.723816,14.904732 370.637390,18.560133 384.007721,23.360029 
	C411.332092,33.169350 437.470673,45.589146 461.283905,62.506718 
	C465.341034,65.389000 469.944611,67.502098 474.690125,69.950607 
	C475.084534,69.930672 475.039062,69.951027 475.035706,70.312653 
	C476.707153,74.723633 479.598816,77.014183 484.114349,76.957512 
	C490.670319,82.734283 497.226288,88.511047 503.766998,94.906075 
	C502.756927,96.383423 501.852478,97.385468 500.753784,98.080269 
	C482.793671,109.438141 464.801727,120.745552 446.831451,132.087341 
	C408.784943,156.100098 370.750366,180.131821 332.704285,204.145187 
	C295.781433,227.449585 258.852234,250.743927 221.921906,274.036438 
	C203.947998,285.372833 185.934296,296.646698 168.019485,308.075653 
	C165.327744,309.792847 163.545746,310.225128 160.614014,308.057007 
	C154.713898,303.693726 148.242966,300.108276 142.063660,296.115082 
	C133.572784,290.628143 133.508804,290.457520 142.314865,284.874420 
	C180.171997,260.872589 218.077194,236.946503 255.978500,213.014420 
	C290.370117,191.298447 324.777069,169.606735 359.181793,147.911514 
	C377.156403,136.576920 395.155182,125.280525 413.114594,113.921837 
	C421.762878,108.452072 430.345306,102.878105 440.235657,96.531128 
	C437.735901,94.874847 436.143677,93.819862 434.551422,92.764877 
	C434.551422,92.764877 434.527252,92.732071 434.514282,92.752251 
z"/>
<path fill="#F58220" opacity="1.000000" stroke="none" 
	d="
M434.691772,93.050453 
	C436.143677,93.819862 437.735901,94.874847 440.235657,96.531128 
	C430.345306,102.878105 421.762878,108.452072 413.114594,113.921837 
	C395.155182,125.280525 377.156403,136.576920 359.181793,147.911514 
	C324.777069,169.606735 290.370117,191.298447 255.978500,213.014420 
	C218.077194,236.946503 180.171997,260.872589 142.314865,284.874420 
	C133.508804,290.457520 133.572784,290.628143 142.063660,296.115082 
	C148.242966,300.108276 154.713898,303.693726 160.614014,308.057007 
	C163.545746,310.225128 165.327744,309.792847 168.019485,308.075653 
	C185.934296,296.646698 203.947998,285.372833 221.921906,274.036438 
	C258.852234,250.743927 295.781433,227.449585 332.704285,204.145187 
	C370.750366,180.131821 408.784943,156.100098 446.831451,132.087341 
	C464.801727,120.745552 482.793671,109.438141 500.753784,98.080269 
	C501.852478,97.385468 502.756927,96.383423 503.901245,95.209572 
	C509.332062,97.978951 509.329529,98.827972 504.415680,101.910980 
	C485.636841,113.693031 466.911835,125.560867 448.131378,137.340317 
	C421.616547,153.970917 395.038788,170.501389 368.548706,187.171265 
	C351.295837,198.028305 334.177063,209.098236 316.951721,219.999329 
	C288.984131,237.698685 260.972351,255.328217 232.990738,273.005402 
	C211.624954,286.503082 190.312378,300.085907 168.841705,313.414307 
	C167.405991,314.305542 164.408707,314.078949 162.856461,313.159241 
	C152.342773,306.929871 142.039612,300.346252 131.632507,293.935455 
	C126.576538,290.820953 126.725433,289.248810 131.946106,285.973389 
	C149.348923,275.054871 166.645233,263.966736 184.020584,253.004181 
	C212.287369,235.169907 240.621155,217.441650 268.859253,199.562210 
	C304.818390,176.794067 340.698334,153.900955 376.636261,131.099258 
	C395.631561,119.047218 414.681091,107.080612 433.681091,95.035927 
	C434.211029,94.699989 434.454865,93.912804 434.691772,93.050453 
z"/>
<path fill="#F58220" opacity="1.000000" stroke="none" 
	d="
M483.970276,76.646965 
	C479.598816,77.014183 476.707153,74.723633 475.044434,70.289978 
	C477.979767,72.049255 480.903015,74.192841 483.970276,76.646965 
z"/>
<path fill="#ED0F69" opacity="1.000000" stroke="none" 
	d="
M334.897614,618.627319 
	C331.608459,618.955688 328.383545,618.910950 325.079956,618.516357 
	C327.440002,617.518860 329.852142,616.664612 332.333130,616.344971 
	C333.114410,616.244324 334.080414,617.577332 334.897614,618.627319 
z"/>
<path fill="#ED0F69" opacity="1.000000" stroke="none" 
	d="
M147.949005,339.622864 
	C145.432159,338.496002 142.772949,337.051453 140.084732,335.254944 
	C142.639359,336.370361 145.223007,337.837738 147.949005,339.622864 
z"/>
<path fill="#ED0F69" opacity="1.000000" stroke="none" 
	d="
M177.949020,358.622864 
	C175.432159,357.496033 172.772949,356.051483 170.084747,354.254944 
	C172.639374,355.370331 175.223022,356.837738 177.949020,358.622864 
z"/>
<path fill="#ED0F69" opacity="1.000000" stroke="none" 
	d="
M166.949005,351.622864 
	C164.432144,350.496033 161.772934,349.051483 159.084732,347.254944 
	C161.639374,348.370331 164.223022,349.837738 166.949005,351.622864 
z"/>
<path fill="#ED0F69" opacity="1.000000" stroke="none" 
	d="
M158.949020,346.622864 
	C156.432175,345.496002 153.772964,344.051453 151.084747,342.254944 
	C153.639374,343.370331 156.223022,344.837738 158.949020,346.622864 
z"/>
<path fill="#ED0F69" opacity="1.000000" stroke="none" 
	d="
M329.948975,454.622864 
	C327.432159,453.496033 324.772919,452.051514 322.084717,450.254974 
	C324.639343,451.370361 327.222961,452.837769 329.948975,454.622864 
z"/>
<path fill="#ED0F69" opacity="1.000000" stroke="none" 
	d="
M139.949005,334.622864 
	C137.432159,333.496033 134.772949,332.051483 132.084732,330.254944 
	C134.639359,331.370361 137.223007,332.837769 139.949005,334.622864 
z"/>
<path fill="#ED0F69" opacity="1.000000" stroke="none" 
	d="
M261.948975,411.622864 
	C259.432159,410.496033 256.772949,409.051483 254.084732,407.254944 
	C256.639343,408.370361 259.222992,409.837738 261.948975,411.622864 
z"/>
<path fill="#ED0F69" opacity="1.000000" stroke="none" 
	d="
M185.949005,363.622864 
	C183.432159,362.496002 180.772949,361.051483 178.084732,359.254944 
	C180.639359,360.370361 183.223007,361.837738 185.949005,363.622864 
z"/>
<path fill="#ED0F69" opacity="1.000000" stroke="none" 
	d="
M196.949005,370.622864 
	C194.432159,369.496002 191.772949,368.051483 189.084732,366.254944 
	C191.639359,367.370361 194.223007,368.837769 196.949005,370.622864 
z"/>
<path fill="#ED0F69" opacity="1.000000" stroke="none" 
	d="
M204.949005,375.622864 
	C202.432159,374.496033 199.772949,373.051483 197.084732,371.254944 
	C199.639374,372.370361 202.223007,373.837738 204.949005,375.622864 
z"/>
<path fill="#ED0F69" opacity="1.000000" stroke="none" 
	d="
M109.949020,315.622864 
	C107.432159,314.496002 104.772934,313.051453 102.084702,311.254944 
	C104.639343,312.370361 107.223000,313.837769 109.949020,315.622864 
z"/>
<path fill="#ED0F69" opacity="1.000000" stroke="none" 
	d="
M215.949005,382.622864 
	C213.432159,381.496033 210.772949,380.051483 208.084732,378.254944 
	C210.639374,379.370361 213.223007,380.837738 215.949005,382.622864 
z"/>
<path fill="#ED0F69" opacity="1.000000" stroke="none" 
	d="
M223.949020,387.622833 
	C221.432159,386.496002 218.772949,385.051483 216.084747,383.254944 
	C218.639374,384.370331 221.223022,385.837738 223.949020,387.622833 
z"/>
<path fill="#ED0F69" opacity="1.000000" stroke="none" 
	d="
M253.949005,406.622864 
	C251.432159,405.496002 248.772949,404.051483 246.084732,402.254944 
	C248.639359,403.370361 251.223007,404.837769 253.949005,406.622864 
z"/>
<path fill="#ED0F69" opacity="1.000000" stroke="none" 
	d="
M234.949005,394.622864 
	C232.432159,393.496033 229.772949,392.051483 227.084732,390.254944 
	C229.639374,391.370331 232.223022,392.837738 234.949005,394.622864 
z"/>
<path fill="#ED0F69" opacity="1.000000" stroke="none" 
	d="
M242.949020,399.622833 
	C240.432175,398.496002 237.772964,397.051453 235.084747,395.254944 
	C237.639374,396.370361 240.223007,397.837738 242.949020,399.622833 
z"/>
<path fill="#ED0F69" opacity="1.000000" stroke="none" 
	d="
M318.948975,447.622864 
	C316.432159,446.496033 313.772919,445.051514 311.084717,443.254974 
	C313.639343,444.370361 316.222992,445.837738 318.948975,447.622864 
z"/>
<path fill="#ED0F69" opacity="1.000000" stroke="none" 
	d="
M63.949020,286.622833 
	C61.432159,285.496002 58.772938,284.051453 56.084717,282.254944 
	C58.639366,283.370331 61.223011,284.837738 63.949020,286.622833 
z"/>
<path fill="#ED0F69" opacity="1.000000" stroke="none" 
	d="
M299.948975,435.622864 
	C297.432159,434.496033 294.772919,433.051514 292.084717,431.254974 
	C294.639343,432.370331 297.222992,433.837738 299.948975,435.622864 
z"/>
<path fill="#ED0F69" opacity="1.000000" stroke="none" 
	d="
M14.948965,255.622757 
	C12.429885,254.490143 9.768381,253.039749 7.074142,251.236847 
	C9.629785,252.357880 12.218163,253.831436 14.948965,255.622757 
z"/>
<path fill="#ED0F69" opacity="1.000000" stroke="none" 
	d="
M25.949017,262.622864 
	C23.432152,261.496033 20.772932,260.051483 18.084713,258.254944 
	C20.639364,259.370331 23.223013,260.837738 25.949017,262.622864 
z"/>
<path fill="#ED0F69" opacity="1.000000" stroke="none" 
	d="
M33.949013,267.622833 
	C31.432152,266.496002 28.772928,265.051483 26.084705,263.254944 
	C28.639357,264.370331 31.223005,265.837738 33.949013,267.622833 
z"/>
<path fill="#ED0F69" opacity="1.000000" stroke="none" 
	d="
M291.948975,430.622864 
	C289.432159,429.496033 286.772919,428.051514 284.084717,426.254974 
	C286.639343,427.370361 289.222992,428.837769 291.948975,430.622864 
z"/>
<path fill="#ED0F69" opacity="1.000000" stroke="none" 
	d="
M44.949013,274.622833 
	C42.432156,273.496002 39.772934,272.051483 37.084717,270.254944 
	C39.639359,271.370331 42.223000,272.837738 44.949013,274.622833 
z"/>
<path fill="#ED0F69" opacity="1.000000" stroke="none" 
	d="
M52.949005,279.622833 
	C50.432156,278.496002 47.772934,277.051483 45.084709,275.254944 
	C47.639355,276.370361 50.222996,277.837738 52.949005,279.622833 
z"/>
<path fill="#ED0F69" opacity="1.000000" stroke="none" 
	d="
M280.948975,423.622864 
	C278.432159,422.496033 275.772919,421.051514 273.084717,419.255005 
	C275.639343,420.370361 278.222961,421.837769 280.948975,423.622864 
z"/>
<path fill="#ED0F69" opacity="1.000000" stroke="none" 
	d="
M128.949005,327.622833 
	C126.432152,326.496002 123.772934,325.051453 121.084709,323.254944 
	C123.639351,324.370331 126.222992,325.837738 128.949005,327.622833 
z"/>
<path fill="#ED0F69" opacity="1.000000" stroke="none" 
	d="
M71.949020,291.622864 
	C69.432152,290.496002 66.772926,289.051483 64.084702,287.254944 
	C66.639359,288.370361 69.223007,289.837738 71.949020,291.622864 
z"/>
<path fill="#ED0F69" opacity="1.000000" stroke="none" 
	d="
M272.948975,418.622864 
	C270.432159,417.496033 267.772919,416.051514 265.084717,414.254974 
	C267.639374,415.370331 270.222992,416.837738 272.948975,418.622864 
z"/>
<path fill="#ED0F69" opacity="1.000000" stroke="none" 
	d="
M82.949020,298.622864 
	C80.432152,297.496002 77.772934,296.051483 75.084702,294.254944 
	C77.639359,295.370361 80.223007,296.837738 82.949020,298.622864 
z"/>
<path fill="#ED0F69" opacity="1.000000" stroke="none" 
	d="
M90.949020,303.622864 
	C88.432144,302.496033 85.772919,301.051483 83.084702,299.254944 
	C85.639359,300.370331 88.223007,301.837738 90.949020,303.622864 
z"/>
<path fill="#ED0F69" opacity="1.000000" stroke="none" 
	d="
M101.949020,310.622864 
	C99.432152,309.496002 96.772934,308.051483 94.084702,306.254944 
	C96.639351,307.370361 99.223000,308.837769 101.949020,310.622864 
z"/>
<path fill="#ED0F69" opacity="1.000000" stroke="none" 
	d="
M310.948975,442.622864 
	C308.432159,441.496033 305.772919,440.051514 303.084717,438.254974 
	C305.639343,439.370361 308.222992,440.837769 310.948975,442.622864 
z"/>
<path fill="#ED0F69" opacity="1.000000" stroke="none" 
	d="
M120.949020,322.622864 
	C118.432152,321.496002 115.772934,320.051483 113.084709,318.254944 
	C115.639359,319.370331 118.223015,320.837738 120.949020,322.622864 
z"/>
<path fill="#ED0F69" opacity="1.000000" stroke="none" 
	d="
M334.898560,458.644287 
	C333.257050,457.860260 331.680756,456.720551 330.080139,455.241943 
	C331.691803,456.031555 333.327789,457.160065 334.898560,458.644287 
z"/>
<path fill="#ED0F69" opacity="1.000000" stroke="none" 
	d="
M322.646790,618.100891 
	C322.372467,620.280212 321.735016,622.370117 319.062378,619.489929 
	C320.098724,618.789429 321.196228,618.412354 322.646790,618.100891 
z"/>
<path fill="#ED0F69" opacity="1.000000" stroke="none" 
	d="
M316.646790,619.100952 
	C316.372467,621.280212 315.735016,623.370117 313.062378,620.489990 
	C314.098724,619.789490 315.196228,619.412354 316.646790,619.100952 
z"/>
<path fill="#ED0F69" opacity="1.000000" stroke="none" 
	d="
M309.646790,620.100952 
	C309.372467,622.280212 308.735016,624.370117 306.062378,621.489990 
	C307.098724,620.789429 308.196228,620.412354 309.646790,620.100952 
z"/>
<path fill="#ED0F69" opacity="1.000000" stroke="none" 
	d="
M299.646790,621.100952 
	C299.372467,623.280212 298.735016,625.370117 296.062378,622.489990 
	C297.098724,621.789490 298.196228,621.412415 299.646790,621.100952 
z"/>
<path fill="#ED0F69" opacity="1.000000" stroke="none" 
	d="
M283.646790,622.100952 
	C283.372467,624.280212 282.735016,626.370117 280.062378,623.489990 
	C281.098724,622.789490 282.196228,622.412415 283.646790,622.100952 
z"/>
<path fill="#ED0F69" opacity="1.000000" stroke="none" 
	d="
M321.963379,449.638916 
	C321.102478,449.500916 320.113373,449.061310 319.089905,448.262299 
	C319.982086,448.381073 320.908661,448.859222 321.963379,449.638916 
z"/>
<path fill="#ED0F69" opacity="1.000000" stroke="none" 
	d="
M188.963379,365.638977 
	C188.102448,365.500946 187.113358,365.061310 186.089905,364.262329 
	C186.982117,364.381073 187.908676,364.859222 188.963379,365.638977 
z"/>
<path fill="#ED0F69" opacity="1.000000" stroke="none" 
	d="
M302.963379,437.638977 
	C302.102448,437.500946 301.113342,437.061340 300.089905,436.262329 
	C300.982117,436.381042 301.908691,436.859192 302.963379,437.638977 
z"/>
<path fill="#ED0F69" opacity="1.000000" stroke="none" 
	d="
M264.963379,413.638947 
	C264.102448,413.500946 263.113373,413.061310 262.089905,412.262329 
	C262.982117,412.381073 263.908661,412.859192 264.963379,413.638947 
z"/>
<path fill="#ED0F69" opacity="1.000000" stroke="none" 
	d="
M17.963379,257.638977 
	C17.102448,257.500916 16.113352,257.061279 15.089883,256.262268 
	C15.982079,256.381042 16.908646,256.859192 17.963379,257.638977 
z"/>
<path fill="#ED0F69" opacity="1.000000" stroke="none" 
	d="
M36.963387,269.638947 
	C36.102448,269.500946 35.113354,269.061340 34.089901,268.262329 
	C34.982105,268.381073 35.908672,268.859192 36.963387,269.638947 
z"/>
<path fill="#ED0F69" opacity="1.000000" stroke="none" 
	d="
M55.963394,281.638947 
	C55.102451,281.500946 54.113361,281.061340 53.089905,280.262329 
	C53.982109,280.381073 54.908676,280.859192 55.963394,281.638947 
z"/>
<path fill="#ED0F69" opacity="1.000000" stroke="none" 
	d="
M74.963394,293.638977 
	C74.102448,293.500946 73.113350,293.061340 72.089890,292.262329 
	C72.982101,292.381104 73.908669,292.859253 74.963394,293.638977 
z"/>
<path fill="#ED0F69" opacity="1.000000" stroke="none" 
	d="
M93.963394,305.638947 
	C93.102455,305.500916 92.113358,305.061310 91.089897,304.262329 
	C91.982101,304.381073 92.908669,304.859222 93.963394,305.638947 
z"/>
<path fill="#ED0F69" opacity="1.000000" stroke="none" 
	d="
M112.963394,317.638977 
	C112.102448,317.500946 111.113350,317.061340 110.089890,316.262329 
	C110.982101,316.381073 111.908669,316.859222 112.963394,317.638977 
z"/>
<path fill="#ED0F69" opacity="1.000000" stroke="none" 
	d="
M131.963394,329.638947 
	C131.102448,329.500916 130.113358,329.061310 129.089905,328.262329 
	C129.982117,328.381073 130.908676,328.859222 131.963394,329.638947 
z"/>
<path fill="#ED0F69" opacity="1.000000" stroke="none" 
	d="
M150.963394,341.638947 
	C150.102448,341.500946 149.113358,341.061340 148.089905,340.262329 
	C148.982117,340.381073 149.908691,340.859192 150.963394,341.638947 
z"/>
<path fill="#ED0F69" opacity="1.000000" stroke="none" 
	d="
M169.963394,353.638947 
	C169.102448,353.500946 168.113358,353.061310 167.089905,352.262329 
	C167.982117,352.381073 168.908691,352.859192 169.963394,353.638947 
z"/>
<path fill="#ED0F69" opacity="1.000000" stroke="none" 
	d="
M207.963394,377.638947 
	C207.102448,377.500916 206.113358,377.061310 205.089905,376.262329 
	C205.982117,376.381073 206.908676,376.859222 207.963394,377.638947 
z"/>
<path fill="#ED0F69" opacity="1.000000" stroke="none" 
	d="
M226.963394,389.638947 
	C226.102448,389.500946 225.113358,389.061340 224.089905,388.262329 
	C224.982132,388.381042 225.908691,388.859192 226.963394,389.638947 
z"/>
<path fill="#ED0F69" opacity="1.000000" stroke="none" 
	d="
M245.963394,401.638947 
	C245.102448,401.500946 244.113358,401.061310 243.089905,400.262329 
	C243.982117,400.381073 244.908676,400.859222 245.963394,401.638947 
z"/>
<path fill="#ED0F69" opacity="1.000000" stroke="none" 
	d="
M283.963379,425.638947 
	C283.102448,425.500946 282.113342,425.061340 281.089905,424.262329 
	C281.982117,424.381073 282.908661,424.859192 283.963379,425.638947 
z"/>
<path fill="#ED0F69" opacity="1.000000" stroke="none" 
	d="
M45.668514,623.097229 
	C45.680401,623.647400 45.361717,624.128296 45.043037,624.609131 
	C44.724968,624.315247 44.406895,624.021423 44.045044,623.447021 
	C44.446827,623.120361 44.892384,623.074158 45.668514,623.097229 
z"/>
<path fill="#ED0F69" opacity="1.000000" stroke="none" 
	d="
M333.534729,506.674866 
	C333.589996,506.346832 333.828827,506.245453 334.450500,506.074280 
	C334.461700,506.303497 334.090027,506.602509 333.534729,506.674866 
z"/>
<path fill="#ED0F69" opacity="1.000000" stroke="none" 
	d="
M334.272247,659.863281 
	C334.108246,659.576294 334.263245,659.366150 334.657715,659.111389 
	C334.731415,659.310852 334.629456,659.602051 334.272247,659.863281 
z"/>
</svg>